<svg id="Layer_1" data-name="Layer 1" xmlns="http://www.w3.org/2000/svg" xmlns:xlink="http://www.w3.org/1999/xlink" viewBox="0 0 846.26 240.95"><defs><style>.cls-1{fill:#fff;}.cls-2{fill:url(#linear-gradient);}.cls-3{fill:url(#linear-gradient-2);}</style><linearGradient id="linear-gradient" x1="222.34" y1="245.93" x2="499.34" y2="245.93" gradientUnits="userSpaceOnUse"><stop offset="0" stop-color="#11c5ce"/><stop offset="0.08" stop-color="#19becf"/><stop offset="0.21" stop-color="#2fabd2"/><stop offset="0.38" stop-color="#538bd7"/><stop offset="0.4" stop-color="#5986d8"/><stop offset="0.48" stop-color="#5f81d9"/><stop offset="0.59" stop-color="#6f73db"/><stop offset="0.71" stop-color="#895cdf"/><stop offset="0.84" stop-color="#ae3ce4"/><stop offset="0.98" stop-color="#dd14ea"/><stop offset="1" stop-color="#e40eeb"/></linearGradient><linearGradient id="linear-gradient-2" x1="203.57" y1="55.55" x2="430.83" y2="45.61" gradientTransform="translate(24.62 92.52) rotate(3.37)" gradientUnits="userSpaceOnUse"><stop offset="0" stop-color="#11c5ce"/><stop offset="0.11" stop-color="#1dbad0"/><stop offset="0.31" stop-color="#3e9ed4"/><stop offset="0.45" stop-color="#5986d8"/><stop offset="0.53" stop-color="#5f81d9"/><stop offset="0.63" stop-color="#6f73db"/><stop offset="0.74" stop-color="#895cdf"/><stop offset="0.86" stop-color="#ae3ce4"/><stop offset="0.98" stop-color="#dd14ea"/><stop offset="1" stop-color="#e40eeb"/></linearGradient></defs><path class="cls-1" d="M624.12,293.88c12.34,0,21.58-4.24,30.44-12.43,2.16-2,4.33-2.07,6.4-.09l3.49,3.29c2.07,2,2.26,4.15.28,6.32-10,10.73-22.14,17.71-40.14,17.71-31.75,0-53.05-22.8-53.05-51.07s22-51.07,51.64-51.07c29.11,0,49.75,22.05,49.75,48.9,0,1-.1,2.26-.19,3.4-.28,2.82-2.07,4.14-4.8,4.14H589.07C591,280.41,605.27,293.88,624.12,293.88Zm-34.39-45.13h65.2c-2.64-15.73-15.26-27.42-31.75-27.42C606.88,221.33,593.12,233.2,589.73,248.75Z" transform="translate(-222.34 -125.45)"/><path class="cls-1" d="M732.27,306.42h-10a5.3,5.3,0,0,1-5.28-3.58L682.62,214c-1.23-3.2.28-5.18,3.58-5.18h8.38a5.18,5.18,0,0,1,5.28,3.58L727.28,284l27.42-71.61A5.18,5.18,0,0,1,760,208.8h8.38c3.3,0,4.81,2,3.58,5.18l-34.39,88.86A5.3,5.3,0,0,1,732.27,306.42Z" transform="translate(-222.34 -125.45)"/><path class="cls-1" d="M834.21,293.88c12.34,0,21.58-4.24,30.44-12.43,2.16-2,4.33-2.07,6.4-.09l3.49,3.29c2.07,2,2.26,4.15.28,6.32-10,10.73-22.14,17.71-40.14,17.71-31.75,0-53-22.8-53-51.07s22-51.07,51.64-51.07c29.11,0,49.75,22.05,49.75,48.9,0,1-.1,2.26-.19,3.4-.28,2.82-2.07,4.14-4.8,4.14H799.16C801,280.41,815.37,293.88,834.21,293.88Zm-34.39-45.13H865c-2.64-15.73-15.26-27.42-31.75-27.42C817,221.33,803.21,233.2,799.82,248.75Z" transform="translate(-222.34 -125.45)"/><path class="cls-1" d="M916.36,306.42h-8.11c-2.92,0-4.52-1.6-4.52-4.53V213.32c0-2.92,1.6-4.52,4.52-4.52h8.11c2.92,0,4.52,1.6,4.52,4.52v10.46a37.83,37.83,0,0,1,31.66-17.24c24,0,39.29,15.36,39.29,39.86v55.49c0,2.93-1.6,4.53-4.52,4.53H979.2c-2.92,0-4.52-1.6-4.52-4.53V247.34c0-15.55-9.42-25.44-25.35-25.44-14.88,0-28.45,13.09-28.45,30.15v49.84C920.88,304.82,919.28,306.42,916.36,306.42Z" transform="translate(-222.34 -125.45)"/><path class="cls-1" d="M1059.84,293.6c1.23,0,2.64,0,4.05-.09,3-.19,4.71,1.32,4.71,4.33v4.34c0,2.54-1,4.43-3.58,5.18a42.09,42.09,0,0,1-10.36,1.32c-20,0-31-10.56-31-33.26V223.88h-15.92c-2.93,0-4.53-1.6-4.53-4.53v-6c0-2.92,1.6-4.52,4.53-4.52h15.92V189.2a4.72,4.72,0,0,1,3.86-5l8.2-2.26c3.11-.85,5.09.66,5.09,3.86v23H1063c2.92,0,4.52,1.6,4.52,4.52v6c0,2.93-1.6,4.53-4.52,4.53h-22.14v51.35C1040.81,287.57,1046.08,293.6,1059.84,293.6Z" transform="translate(-222.34 -125.45)"/><path class="cls-1" d="M520.92,306.33h-9.06a4,4,0,0,1-4-4V246.21a43.76,43.76,0,0,1,43.76-43.75h5.91a4.7,4.7,0,0,1,4.7,4.7v7.73a4.7,4.7,0,0,1-4.7,4.7h-5.91A26.63,26.63,0,0,0,525,246.22v56.07A4,4,0,0,1,520.92,306.33Z" transform="translate(-222.34 -125.45)"/><path class="cls-2" d="M337.62,366.4a120.85,120.85,0,0,1-109.51-70.2c-12.71-27.64-3.85-60.83,21.07-78.91A64.45,64.45,0,0,1,333,223.92l1.35,1.34,8.55-8.55A34.18,34.18,0,1,1,390.28,266l-54.09,50.11-40-39a10.59,10.59,0,0,1-.18-15h0a10.58,10.58,0,0,1,15-.18l25.58,25,39-36.13a13.55,13.55,0,0,0,4.37-8,13,13,0,0,0-22.09-11.08l-23.51,23.51L318,238.88a43.4,43.4,0,0,0-56.42-4.46c-16.78,12.17-22.78,34.44-14.28,52.94a99.35,99.35,0,0,0,162.94,26.29,99.32,99.32,0,1,0-146.8-133.79l-15.8-14.08a120,120,0,0,1,97.84-40.07c59.83,3.81,108.1,51.79,112.28,111.59a119.47,119.47,0,0,1-32.05,90.78A120.91,120.91,0,0,1,337.62,366.4Z" transform="translate(-222.34 -125.45)"/><path class="cls-3" d="M245.57,184.47h0l43.41.2a4.22,4.22,0,0,0,3-7.19l-39.78-40.14a4.21,4.21,0,0,0-7.21,3Z" transform="translate(-222.34 -125.45)"/></svg>