<svg id="Layer_1" data-name="Layer 1" xmlns="http://www.w3.org/2000/svg" xmlns:xlink="http://www.w3.org/1999/xlink" viewBox="0 0 846.26 240.95"><defs><style>.cls-1{fill:url(#linear-gradient);}.cls-2{fill:url(#linear-gradient-2);}</style><linearGradient id="linear-gradient" x1="266.64" y1="502.89" x2="543.64" y2="502.89" gradientUnits="userSpaceOnUse"><stop offset="0" stop-color="#11c5ce"/><stop offset="0.08" stop-color="#19becf"/><stop offset="0.21" stop-color="#2fabd2"/><stop offset="0.38" stop-color="#538bd7"/><stop offset="0.4" stop-color="#5986d8"/><stop offset="0.48" stop-color="#5f81d9"/><stop offset="0.59" stop-color="#6f73db"/><stop offset="0.71" stop-color="#895cdf"/><stop offset="0.84" stop-color="#ae3ce4"/><stop offset="0.98" stop-color="#dd14ea"/><stop offset="1" stop-color="#e40eeb"/></linearGradient><linearGradient id="linear-gradient-2" x1="262.89" y1="309.46" x2="490.16" y2="299.53" gradientTransform="translate(24.62 92.52) rotate(3.37)" gradientUnits="userSpaceOnUse"><stop offset="0" stop-color="#11c5ce"/><stop offset="0.11" stop-color="#1dbad0"/><stop offset="0.31" stop-color="#3e9ed4"/><stop offset="0.45" stop-color="#5986d8"/><stop offset="0.53" stop-color="#5f81d9"/><stop offset="0.63" stop-color="#6f73db"/><stop offset="0.74" stop-color="#895cdf"/><stop offset="0.86" stop-color="#ae3ce4"/><stop offset="0.98" stop-color="#dd14ea"/><stop offset="1" stop-color="#e40eeb"/></linearGradient></defs><path d="M668.42,550.85c12.35,0,21.58-4.24,30.44-12.44,2.17-2,4.33-2.07,6.41-.09l3.48,3.29c2.08,2,2.26,4.15.28,6.32-10,10.74-22.14,17.71-40.13,17.71-31.76,0-53-22.8-53-51.07s21.95-51.07,51.63-51.07c29.12,0,49.75,22.05,49.75,48.91,0,1-.09,2.25-.19,3.39-.28,2.82-2.07,4.14-4.8,4.14H633.37C635.26,537.37,649.58,550.85,668.42,550.85ZM634,505.71h65.21C696.6,490,684,478.29,667.48,478.29,651.18,478.29,637.42,490.17,634,505.71Z" transform="translate(-266.64 -382.41)"/><path d="M776.58,563.38h-10a5.31,5.31,0,0,1-5.28-3.58L726.92,471c-1.22-3.21.28-5.19,3.58-5.19h8.39a5.17,5.17,0,0,1,5.27,3.58L771.58,541,799,469.34a5.19,5.19,0,0,1,5.28-3.58h8.39c3.29,0,4.8,2,3.58,5.19L781.86,559.8A5.31,5.31,0,0,1,776.58,563.38Z" transform="translate(-266.64 -382.41)"/><path d="M878.51,550.85c12.35,0,21.58-4.24,30.44-12.44,2.17-2,4.33-2.07,6.41-.09l3.48,3.29c2.08,2,2.26,4.15.28,6.32-10,10.74-22.14,17.71-40.13,17.71-31.76,0-53-22.8-53-51.07s21.95-51.07,51.63-51.07c29.12,0,49.75,22.05,49.75,48.91,0,1-.09,2.25-.19,3.39-.28,2.82-2.07,4.14-4.8,4.14H843.46C845.35,537.37,859.67,550.85,878.51,550.85Zm-34.39-45.14h65.21c-2.64-15.73-15.27-27.42-31.76-27.42C861.27,478.29,847.51,490.17,844.12,505.71Z" transform="translate(-266.64 -382.41)"/><path d="M960.66,563.38h-8.1c-2.92,0-4.53-1.6-4.53-4.53V470.29c0-2.92,1.61-4.53,4.53-4.53h8.1c2.92,0,4.52,1.61,4.52,4.53v10.45a37.87,37.87,0,0,1,31.66-17.24c24,0,39.29,15.36,39.29,39.86v55.49c0,2.93-1.6,4.53-4.52,4.53h-8.1c-2.92,0-4.53-1.6-4.53-4.53V504.3c0-15.55-9.42-25.44-25.34-25.44-14.89,0-28.46,13.1-28.46,30.15v49.84C965.18,561.78,963.58,563.38,960.66,563.38Z" transform="translate(-266.64 -382.41)"/><path d="M1104.15,550.57c1.22,0,2.63,0,4-.1,3-.19,4.71,1.32,4.71,4.34v4.33c0,2.54-1,4.43-3.58,5.18a42.23,42.23,0,0,1-10.37,1.32c-20,0-31-10.55-31-33.26V480.84H1052c-2.92,0-4.52-1.6-4.52-4.52v-6c0-2.92,1.6-4.53,4.52-4.53H1068v-19.6a4.73,4.73,0,0,1,3.87-5l8.19-2.26c3.11-.85,5.09.66,5.09,3.86v23h22.15c2.92,0,4.52,1.61,4.52,4.53v6c0,2.92-1.6,4.52-4.52,4.52h-22.15v51.35C1085.11,544.54,1090.39,550.57,1104.15,550.57Z" transform="translate(-266.64 -382.41)"/><path d="M565.22,563.29h-9.06a4,4,0,0,1-4-4V503.17a43.75,43.75,0,0,1,43.75-43.75h5.91a4.71,4.71,0,0,1,4.71,4.7v7.73a4.7,4.7,0,0,1-4.71,4.7h-5.91a26.62,26.62,0,0,0-26.62,26.63v56.07A4,4,0,0,1,565.22,563.29Z" transform="translate(-266.64 -382.41)"/><path class="cls-1" d="M381.92,623.37a120.89,120.89,0,0,1-109.51-70.2c-12.71-27.65-3.85-60.84,21.07-78.92a64.46,64.46,0,0,1,83.81,6.63l1.35,1.35,8.55-8.55a34.17,34.17,0,0,1,58.34,24.82,33.87,33.87,0,0,1-10.94,24.42L380.49,573l-40-39a10.58,10.58,0,0,1-.18-15h0a10.58,10.58,0,0,1,15-.18l25.58,25,39-36.13a13.56,13.56,0,0,0,4.38-8,13,13,0,0,0-22.09-11.08l-23.52,23.52-16.31-16.32a43.41,43.41,0,0,0-56.42-4.46c-16.78,12.18-22.78,34.44-14.27,53a99.35,99.35,0,0,0,162.93,26.28,99.31,99.31,0,1,0-146.8-133.78L292,422.74a120,120,0,0,1,97.83-40.07c59.84,3.82,108.11,51.79,112.29,111.59A119.55,119.55,0,0,1,470.05,585,121,121,0,0,1,381.92,623.37Z" transform="translate(-266.64 -382.41)"/><path class="cls-2" d="M289.87,441.43h0l43.42.2a4.22,4.22,0,0,0,3-7.19L296.52,394.3a4.22,4.22,0,0,0-7.21,3Z" transform="translate(-266.64 -382.41)"/></svg>